<svg width="371" height="809" viewBox="0 0 371 809" fill="none" xmlns="http://www.w3.org/2000/svg">
<path fill-rule="evenodd" clip-rule="evenodd" d="M-113.026 60.1261C-111.355 64.233 -108.001 71.0365 -99.2262 95.9364C-90.4516 120.836 -76.3316 160.335 -67.8465 183.709C-59.363 207.086 -52.7953 226.79 -53.2562 227.497C-54.2652 229.052 -81.9708 200.576 -86.9211 192.894C-88.8524 189.899 -92.4601 186.386 -94.9369 185.083C-105.418 179.581 -96.5041 193.153 -73.1792 218.21C-50.5621 242.507 -48.4956 244.109 -42.5645 241.959C-36.6036 239.798 -36.5104 239.873 -41.0728 243.157C-46.5481 247.099 -46.6403 247.967 -42.1456 253.295C-36.3563 260.16 24.5055 419.441 23.4891 425.07C23.1906 426.728 22.3522 425.706 21.6267 422.797C20.061 416.533 9.21215 399.806 7.01681 400.274C6.17696 400.453 6.35003 405.187 7.40314 410.799C8.45846 416.409 9.26458 427.748 9.19722 435.997L9.07103 450.999L-5.45945 432.876C-13.4523 422.907 -27.8747 408.236 -37.5094 400.273L-55.0293 385.792L-50.1125 412.234C-45.5443 436.812 -44.5599 439.473 -36.1625 449.935C-23.4837 465.731 -11.5748 475.066 2.5418 480.271C9.21608 482.731 15.7575 486.634 17.0767 488.945C19.0746 492.441 20.5322 558.315 18.5827 556.888C18.2341 556.634 7.13538 540.396 -6.0776 520.808C-19.293 501.219 -31.6395 483.63 -33.5169 481.721C-41.7244 473.371 -30.8554 491.626 -6.29372 527.443L19.5772 565.169L21.9912 584.789L24.4078 604.407L17.2535 596.766C13.3216 592.559 7.35617 587.214 3.99922 584.88C0.645159 582.549 -3.50582 577.16 -5.22297 572.907C-8.34036 565.188 -17.3763 552.706 -19.5193 553.162C-20.142 553.295 -19.2799 559.851 -17.6052 567.729C-15.4295 577.966 -13.6652 581.865 -11.4266 581.39C-9.70355 581.024 -4.52243 583.291 0.0877082 586.427C4.6983 589.565 7.15659 592.411 5.55283 592.752C1.38836 593.638 8.64863 601.884 14.3104 602.703C21.5004 603.744 23.0455 606.787 27.9188 629.528C32.4838 650.83 32.4583 651.413 26.9418 654.117C23.3227 655.888 17.4885 655.866 10.7135 654.044L0.137077 651.201L2.32791 660.147C3.53271 665.066 4.61045 667.12 4.72128 664.707C4.90928 660.687 5.56834 660.502 12.6833 662.456L20.4392 664.584L15.6164 682.954C11.0849 700.196 10.9289 713.898 15.2721 712.972C18.4153 712.306 35.3285 694.946 38.1628 689.481C40.5348 684.905 41.7997 687.277 51.4177 714.313C65.0799 752.725 64.9942 752.311 59.4412 753.492C56.8924 754.036 54.3741 755.694 53.8417 757.179C53.3096 758.666 49.6625 760.565 45.7366 761.398C41.8109 762.233 35.7808 765.232 32.3333 768.057L26.0674 773.196L31.1299 797.015C33.9143 810.115 36.5716 820.75 37.0343 820.651C37.4995 820.551 41.3933 811.598 45.6876 800.75L53.4989 781.031L69.0611 815.122C77.6206 833.87 87.45 859.05 90.9041 871.076C94.3582 883.102 97.8052 891.914 98.5612 890.66C99.3198 889.405 101.057 877.474 102.419 864.145L104.9 839.908L107.806 853.016C109.405 860.225 112.591 871.623 114.884 878.34L119.055 890.554L129.204 888.396C135.311 887.098 139.566 884.903 139.885 882.893C140.175 881.057 137.51 865.056 133.962 847.341C130.414 829.628 127.598 812.589 127.705 809.477C127.83 805.911 126.816 804.051 124.964 804.443C122.802 804.904 122.539 804.091 123.97 801.362C125.378 798.681 124.364 793.89 120.307 784.046C116.474 774.746 112.329 756.078 107.212 725.057L99.7254 679.673L109.278 683.541C116.423 686.434 119.26 689.175 120.542 694.43C121.482 698.29 126.808 711.435 132.373 723.642C137.94 735.846 148.947 763.266 156.831 784.574C164.712 805.883 175.598 835.011 181.019 849.299L184.934 862.841L197.087 861.78C204.793 860.142 203.519 861.627 200.74 854.421C180.79 802.644 152.584 721.375 147.485 700.563C143.59 684.669 145.075 678.421 158.578 653.934L164.725 642.78L169.882 659.017C172.718 667.943 179.649 694.483 185.284 717.993L195.528 760.735L202.746 762.427L209.964 764.12L203.117 764.174C194.91 764.236 194.93 764.433 206.256 793.393C210.717 804.799 217.632 826.07 221.629 840.661L226.253 859.233L239.621 858.066L252.989 856.899L250.915 849.408C248.688 842.675 242.269 821.297 236.647 801.903C231.026 782.509 223.486 757.723 219.889 746.819C216.294 735.917 206.373 700.133 197.844 667.3C179.6 597.08 179.591 597.46 199.362 590.434C205.975 588.085 211.853 586.464 212.427 586.838C216.477 589.471 239.3 696.78 250.315 765.015C257.254 807.992 263.699 846.767 264.638 851.189L265.045 855.846L278.51 854.67L294.219 853.299L282.773 791.688C276.476 757.805 263.939 695.335 254.911 652.866C244.308 602.981 239.344 575.473 240.885 575.145C242.198 574.863 243.71 576.697 244.246 579.213C244.779 581.729 248.212 588.036 251.869 593.225C255.53 598.414 264.702 614.54 272.254 629.063C279.804 643.584 287.054 655.85 288.366 656.319C289.675 656.79 289.087 648.194 287.056 637.222C281.21 605.64 279.619 598.78 275.749 588.479C272.301 579.309 272.4 578.847 277.64 579.625C280.68 580.077 288.7 580.07 295.464 579.612C302.225 579.154 310.616 579.862 314.109 581.184L320.458 583.59L313.799 577.69C310.135 574.445 301.543 569.721 294.705 567.194L282.276 562.596L295.827 557.88C313.356 551.782 333.789 541.605 345.105 533.342L354.077 526.79L316.713 535.424C277.566 544.468 267.446 548.723 255.424 561.192C251.51 565.251 246.024 569.06 243.234 569.652C238.779 570.599 237.597 568.987 233.509 556.379C230.951 548.489 227.197 534.218 225.168 524.672L221.478 507.317L229.46 497.671C233.846 492.368 236.858 486.719 236.145 485.122C234.939 482.414 271.03 403.593 276.823 396.282C278.273 394.455 287.969 390.396 298.376 387.258C320.518 380.585 333.647 372.668 349.098 356.681L360.289 345.103L349.158 347.469C329.142 351.726 301.948 362.623 292.134 370.322L282.514 377.866L285.988 363.524C289.328 349.748 289.844 349.093 299.104 346.878C307.177 344.948 313.679 339.482 339.073 313.3C355.753 296.102 369.789 281.664 370.265 281.218C370.742 280.77 370.493 279.99 369.714 279.482C365.432 276.702 300.174 318.463 292.761 328.73C288.372 334.811 288.164 333.557 291.255 319.501C293.076 311.217 292.677 303.195 289.8 290.216C285.182 269.394 271.954 231.716 270.639 235.643C270.141 237.12 270.986 253.788 272.509 272.679C274.464 296.919 274.352 308.995 272.128 313.7C265.1 328.553 264.122 384.443 270.796 389.717C273.195 391.613 271.664 397.076 264.686 411.547C259.566 422.161 253.375 432.113 250.929 433.662C248.482 435.209 246.367 439.618 246.227 443.46C246.02 449.109 230.611 484.988 228.163 485.51C226.701 485.819 227.283 440.483 228.85 432.169C229.77 427.281 234.212 417.57 238.719 410.597C246.682 398.272 266.17 348.041 263.628 346.39C261.65 345.103 233.606 387.017 230.75 395.532C229.345 399.72 227.547 403.283 226.758 403.452C225.039 403.815 210.298 372.936 208.861 365.953C208.305 363.257 208.437 359.837 209.148 358.354C209.86 356.868 209.092 357.886 207.437 360.616C203.351 367.361 207.137 399.534 213.255 410.022C216.368 415.352 219.268 417.522 222.401 416.856C228.066 415.651 227.88 414.449 225.434 436.748C224.31 446.967 223.744 463.676 224.172 473.879C224.603 484.084 223.904 494.9 222.622 497.918C220.525 502.852 220.074 502.002 218.133 489.481C215.641 473.391 213.232 472.136 196.7 478.331C180.135 484.536 179.664 486.263 188.314 508.958C201.224 542.822 201.288 544.647 190.529 571.764L180.956 595.896L177.635 588.577C175.812 584.551 172.157 569.22 169.517 554.508L164.714 527.76L151.093 528.216L137.471 528.676L149.132 524.861C159.024 521.631 160.736 520.205 160.412 515.474C160.201 512.408 151.617 481.665 141.336 447.157C131.058 412.649 122.333 379.429 121.951 373.334C121.193 361.309 125.059 337.733 127.882 337.131C129.873 336.709 142.985 365.202 150.375 386.005L155.32 399.927L157.516 378.741C158.727 367.089 159.361 355.723 158.925 353.484C158.193 349.699 158.367 349.669 161.415 353.027C163.616 355.454 166.675 369.963 170.733 397.217C179.878 458.68 180.296 465.343 175.348 470.659C171.87 474.388 171.748 475.913 174.686 478.817C176.675 480.78 179.65 481.641 181.299 480.725C182.948 479.811 191.408 477.044 200.105 474.576C208.799 472.109 216.69 468.607 217.639 466.797C218.75 464.678 217.835 460.291 215.078 454.516C210.969 445.911 170.479 284.668 170.405 276.613C170.373 273.327 171.571 273.309 178.031 276.496C188.092 281.459 187.073 277.897 176.001 269.403C171.15 265.683 166.661 260.41 166.029 257.684C164.945 253.042 166.181 252.446 185.733 248.195C207.487 243.466 229.329 233.747 258.085 216.003L273.522 206.479L242.446 213.637L211.373 220.795L233.093 199.023C245.04 187.048 256.761 175.823 259.138 174.079C262.14 171.876 259.885 172.024 251.772 174.558C233.913 180.133 201.846 198.162 181.236 214.218C170.194 222.817 163.193 227.034 163.911 224.651C164.571 222.451 172.817 207.942 182.234 192.41L199.356 164.168L209.366 163.562C214.869 163.23 235.709 160.597 255.672 157.711C275.637 154.827 295.243 152.352 299.243 152.21L306.509 151.955L299.485 147.073C278.971 132.815 236.648 131.435 217.825 144.41C209.297 150.287 209.248 150.29 213.003 144.72C215.135 141.556 224.371 135.681 234.084 131.306C251.202 123.6 292.663 92.9245 302.853 80.4329L307.799 74.3646L298.145 76.3627C285.059 79.0714 264.459 89.6118 247.93 102.059C240.404 107.723 233.913 112.43 233.504 112.517C233.098 112.604 233.744 108.893 234.937 104.269C236.133 99.6473 236.353 90.334 235.425 83.5757C233.855 72.1277 233.622 71.7652 232.017 78.266C231.069 82.1038 225.731 92.8277 220.155 102.095L210.018 118.948L204.944 90.9595C201.092 69.6997 197.326 56.9241 189.283 37.8133C183.463 23.9774 178.089 9.80177 177.348 6.3108C174.511 -7.02931 171.708 1.93495 170.163 29.2819C168.036 66.917 168.768 83.293 173.586 105.96C176.929 121.698 179.355 127.271 188.221 139.618C194.068 147.756 199.028 155.254 199.247 156.278C199.464 157.302 190.374 172.632 179.048 190.345L158.457 222.549L153.135 198.482C150.206 185.246 146.995 171.941 145.998 168.913C144.315 163.803 144.864 163.355 153.612 162.687C163.969 161.897 165.871 158.298 156.125 157.943C141.636 157.415 141.86 158.009 127.345 81.7635C120.028 43.3365 116.855 19.4314 116.887 14.2511C116.956 3.19546 113.826 1.47279 96.0546 2.7769C81.9205 3.814 76.9677 6.83402 81.0955 11.8908C82.7815 13.9555 86.9301 25.2122 90.3135 36.906L93.6793 46.3926L74.7243 55.9296C64.3004 61.1737 55.1465 65.5988 54.3828 65.7613C53.6192 65.9238 45.964 56.888 37.371 45.6806C26.8999 32.0203 21.0784 22.1526 19.7163 15.7439L15.8053 9.07866L6.59666 8.54155L-2.33173 12.9362L4.77808 46.3859L14.0446 81.8728L2.07768 78.9074C-9.00706 76.1615 -10.0347 75.2694 -11.8207 66.8671L-13.7498 57.7912L-24.4887 60.0754C-33.5238 61.9968 -35.0715 63.0947 -34.2436 66.9891C-33.3108 71.3779 -33.8292 71.5555 -44.122 70.3878C-72.3318 67.1886 -97.772 69.5325 -79.2912 73.6304C-71.4646 75.3648 -30.1238 93.3658 -28.7012 95.6586C-27.6728 97.3167 -62.3969 103.874 -72.66 103.96C-77.236 104 -78.7028 101.147 -86.7522 76.5149C-94.9323 56.2779 -92.7296 48.8613 -103.7 51.1946C-113.119 53.1979 -116.037 52.7306 -113.026 60.1261ZM-40.9222 25.5114C-40.3405 29.1636 -38.8435 37.5201 -37.5982 44.0835L-35.3292 56.0146L-24.5858 53.7518L-13.8421 51.4893L-17.0699 32.8767L-20.2982 14.2618L-31.1376 16.5672C-41.2893 18.7263 -41.9092 19.295 -40.9222 25.5114ZM28.2075 43.9583C31.1731 45.1419 29.2065 46.0645 21.0539 47.3142C14.8696 48.2602 10.1368 48.1262 10.5356 47.0108C11.5825 44.0853 23.4078 42.0417 28.2075 43.9583ZM46.1293 71.8292C42.5679 78.6263 40.0579 76.2403 37.5978 63.716L35.1267 51.1393L41.5651 59.6977C46.1895 65.8467 47.4747 69.2645 46.1293 71.8292ZM108.403 105.276L114.638 133.741L106.304 128.578C101.685 125.715 96.0959 124.205 93.7661 125.19C90.3126 126.651 87.6343 123.602 78.7365 108.074C72.7815 97.6837 68.5249 88.2893 69.2782 87.1981C70.034 86.1066 76.0625 78.9943 82.6782 71.3931L94.7057 57.5693L98.4369 67.1904C100.489 72.4814 104.973 89.6214 108.403 105.276ZM-15.2703 162.661C2.1539 260.62 6.60571 290.224 4.50967 294.222C3.35758 296.418 3.64631 301.203 5.153 304.852C6.65724 308.504 7.66996 314.782 7.39768 318.805C6.92873 325.776 2.25144 314.567 -22.4458 247.308C-24.3105 242.232 -27.1624 239.329 -30.9396 238.668C-35.3908 237.888 -35.7268 237.445 -32.4829 236.63C-27.7041 235.432 -27.7734 233.931 -33.0195 225.104C-36.0096 220.073 -73.2065 118.381 -74.801 110.879C-75.0067 109.912 -63.5827 110.557 -49.4158 112.313L-23.6568 115.507L-15.2703 162.661ZM76.0342 112.822C81.9061 123.515 86.4866 132.613 86.2122 133.036C85.9378 133.459 76.725 127.315 65.7418 119.378L45.7711 104.951L52.9799 99.8113C56.9435 96.9842 61.3512 94.3796 62.7718 94.0225C64.1931 93.6678 70.1615 102.127 76.0342 112.822ZM28.5336 135.288C39.3787 174.4 42.9448 193.936 41.4024 205.784C39.6714 219.068 40.0573 221.154 43.0595 214.766C45.1299 210.365 45.6874 210.735 48.7473 218.547C50.6105 223.312 54.7435 239.411 57.9277 254.322C63.2484 279.238 64.0251 281.214 67.5089 278.734C74.4039 273.819 86.3198 270.419 86.9107 273.2C87.2202 274.656 83.7792 276.632 79.262 277.595C74.7443 278.555 70.5447 280.753 69.9245 282.483C68.9715 285.146 75.694 317.265 81.3418 337.031C82.7869 342.093 81.4995 343.793 71.9365 349.438L60.8553 355.98L73.16 353.563L85.4668 351.145L93.2206 380.067C97.4875 395.977 102.719 414.123 104.849 420.397C108.268 430.466 108.209 431.725 104.345 431.112C101.936 430.729 90.648 432.401 79.262 434.821L58.5599 439.224L57.0519 427.707C56.0951 420.4 57.153 412.187 59.9421 405.254C67.3184 386.915 72.6824 368.743 71.3745 366.532C70.6931 365.381 65.5246 369.767 59.8885 376.285L49.6413 388.135L45.9913 366.116C43.9807 354.006 41.1523 333.118 39.7019 319.699C38.2519 306.282 28.3175 254.768 17.6277 205.226L-1.81053 115.148L9.88072 112.662L21.5693 110.175L28.5336 135.288ZM77.2538 131.727C80.3749 135.368 79.9296 135.715 71.9039 135.907C66.7548 136.031 62.7414 137.264 62.154 138.902C59.7127 145.722 56.425 141.508 53.5179 127.831L50.3697 113.019L62.1101 120.388C68.5687 124.44 75.3825 129.542 77.2538 131.727ZM100.503 163.89C104.642 170.584 115.865 197.958 125.043 223.743C128.742 234.14 128.675 234.833 124.092 233.506C121.381 232.72 114.425 233.274 108.635 234.737C99.5592 237.032 97.6691 238.595 94.9172 246.091C93.1626 250.873 91.0744 254.966 90.276 255.188C88.1573 255.782 78.7012 221.785 80.4709 219.936C81.2954 219.075 82.0718 215.111 82.1927 211.127C82.4678 202.211 92.8275 157.412 94.7081 157.012C95.4575 156.852 98.0662 159.949 100.503 163.89ZM131.422 200.973C139.764 240.218 139.202 251.07 130.244 223.755C125.299 208.682 111.01 171.676 106.587 162.496L104.09 157.31L113.6 159.595L123.112 161.877L131.422 200.973ZM206.271 148.258C204.443 151.409 202.297 153.563 201.5 153.046C200.705 152.529 201.548 149.529 203.376 146.378C205.207 143.226 207.353 141.072 208.148 141.589C208.945 142.106 208.1 145.106 206.271 148.258ZM69.387 182.987C69.0749 184.77 68.2476 183.541 67.5497 180.258C66.8519 176.975 67.1084 175.518 68.1181 177.017C69.1306 178.519 69.7017 181.205 69.387 182.987ZM136.097 264.122C138.446 266.497 137.801 272.327 133.585 286.885C129.026 302.615 126.974 306.409 123.11 306.229C117.923 305.988 118.01 306.471 116.559 270.209L115.937 254.67L124.44 257.801C129.116 259.522 134.362 262.367 136.097 264.122ZM112.014 292.118C113.36 317.039 108.824 322.1 103.432 301.699C99.8212 288.032 99.9384 286.53 105.103 280.222C108.158 276.488 110.735 273.416 110.829 273.388C110.923 273.36 111.457 281.789 112.014 292.118ZM150.3 289.795L154.842 311.15L142.903 313.405L130.964 315.663L137.594 292.215C141.238 279.319 144.57 268.695 144.992 268.604C145.417 268.515 147.805 278.05 150.3 289.795ZM286.259 338.386C287.265 341.604 286.388 350.774 284.309 358.768L280.53 373.297L277.985 355.12C276.584 345.124 275.368 330.783 275.283 323.251L275.131 309.557L279.779 321.047C282.334 327.367 285.251 335.169 286.259 338.386ZM116.138 463.253C123.802 491.273 124.503 497.269 129.613 578.308C132.575 625.327 135.248 665.432 135.552 667.427C135.856 669.42 134.49 668.027 132.517 664.328C128.482 656.763 87.9404 547.95 86.3221 540.336C85.7356 537.577 90.2866 527.363 96.7301 516.979C103.027 506.834 107.641 498.185 106.987 497.76C106.331 497.339 99.6887 502.594 92.2266 509.441L78.6598 521.89L74.9082 512.641C71.0676 503.175 73.0179 488.4 79.6732 476.538C83.4346 469.836 80.1796 470.916 72.9926 478.75L67.1118 485.162L65.1398 475.885L63.167 466.604L83.954 450.501C95.3859 441.642 105.485 434.235 106.394 434.043C107.306 433.848 111.689 446.994 116.138 463.253ZM30.3684 465.332C28.3648 469.952 26.0384 473.289 25.1998 472.747C23.0405 471.343 28.5131 458.094 31.5176 457.454C32.8898 457.163 32.371 460.707 30.3684 465.332ZM20.1286 475.351C21.5674 482.118 21.308 484.76 19.3308 483.473C16.7472 481.797 14.7895 466.003 17.1021 465.512C17.5936 465.408 18.9561 469.835 20.1286 475.351ZM40.9454 502.877C44.447 519.351 44.3634 519.898 35.5092 538.911C30.5632 549.532 25.9495 556.962 25.257 555.43C24.5619 553.898 23.8552 539.765 23.6827 524.026C23.4098 499.049 24.0341 494.875 28.598 491.198C31.4729 488.881 34.6269 486.798 35.6084 486.57C36.5902 486.342 38.9903 493.68 40.9454 502.877ZM136.159 531.924C137.383 535.429 144.014 560.02 150.898 586.575L163.415 634.854L153.486 653.987C148.025 664.51 143.062 672.799 142.457 672.406C141.853 672.013 139.007 638.37 136.134 597.641C133.261 556.911 131.59 524.029 132.421 524.571C133.254 525.108 134.935 528.422 136.159 531.924ZM55.5712 587.728C56.4372 594.749 59.1804 610.518 61.662 622.769C64.7991 638.256 65.2722 644.718 63.2173 643.981C60.5498 643.025 56.1994 645.559 45.1476 654.502C43.1152 656.147 40.7344 657.644 39.8612 657.831C37.6513 658.301 28.3904 598.09 29.9154 593.166C30.5997 590.965 36.0102 586.177 41.942 582.53C47.8717 578.883 53.0093 575.688 53.3589 575.432C53.7079 575.173 54.7025 580.708 55.5712 587.728ZM207.322 568.511L211.018 582.653L200.945 586.664C195.404 588.868 190.368 590.342 189.753 589.943C189.135 589.543 191.618 581.122 195.268 571.233C198.92 561.342 202.291 553.501 202.766 553.81C203.239 554.117 205.289 560.732 207.322 568.511ZM104.116 648.528L114.212 675.387L105.717 668.714C101.045 665.042 96.6225 659.206 95.8865 655.745C93.178 643.001 90.0335 611.156 91.9955 616.327C93.1095 619.268 98.5637 633.756 104.116 648.528ZM80.8541 723.659C85.5974 749.471 85.5957 750.708 80.829 747.939C78.0687 746.335 74.1359 745.375 72.0932 745.81C68.1079 746.658 60.3331 728.082 50.0367 693.1L44.8511 675.486L60.3529 685.975L75.8571 696.464L80.8541 723.659ZM119.539 808.093C119.007 809.58 115.414 811.467 111.553 812.289C107.692 813.109 104.306 812.706 104.027 811.393C103.748 810.079 107.343 808.192 112.013 807.199C117.067 806.123 120.115 806.486 119.539 808.093Z" fill="url(#paint0_linear_98_225)"/>
<defs>
<linearGradient id="paint0_linear_98_225" x1="170.5" y1="13" x2="220.5" y2="880" gradientUnits="userSpaceOnUse">
<stop stop-color="#1F3438"/>
<stop offset="1"/>
</linearGradient>
</defs>
</svg>
