<svg width="472" height="918" viewBox="0 0 472 918" fill="none" xmlns="http://www.w3.org/2000/svg">
<path fill-rule="evenodd" clip-rule="evenodd" d="M162.41 8.63888C134.88 18.3802 135.295 21.117 164.233 20.6489C174.153 20.4888 195.487 20.5754 211.641 20.8395C227.794 21.1057 245.377 20.8586 250.713 20.2893C259.978 19.3015 258.75 18.8233 223.493 9.67185L186.568 0.0905534L162.41 8.63888ZM322.585 37.9426C325.183 43.4185 321.971 43.9041 310.987 39.6946C298.525 34.917 279.027 36.1172 245.752 43.7115C222.729 48.9652 197.984 58.7961 199.852 61.9435C200.344 62.7721 202.879 62.397 205.487 61.1084C212.018 57.8802 226.878 56.3138 250.137 56.4006C260.95 56.4421 271.933 56.4307 274.543 56.3742C277.153 56.3177 271.816 59.3901 262.682 63.2026C253.548 67.0152 246.316 70.5433 246.614 71.0416C247.501 72.5374 295.945 69.1557 315.414 66.2397C325.381 64.7445 334.247 63.7044 335.115 63.9259C335.981 64.1467 340.371 71.639 344.866 80.574C351.863 94.4766 352.282 96.2868 347.768 93.1115C336.469 85.1641 311.107 82.434 306.677 88.692C305.564 90.2627 303.373 91.2305 301.81 90.8389C300.248 90.45 295.881 90.8559 292.108 91.7436C288.335 92.6314 284.953 92.4152 284.59 91.2635C283.337 87.2606 256.868 76.502 244.948 75.1494C226.355 73.0389 200.45 79.9454 178.11 92.9639C167.312 99.259 161.385 103.415 164.939 102.2C176.327 98.3089 183.338 97.9166 200.842 100.198C210.262 101.423 225.904 103.446 235.603 104.69C245.301 105.934 256.614 106.169 260.741 105.214C267.911 103.552 267.504 104.14 251.64 118.373C237.111 131.409 220.97 150.802 219.344 157.176C219.046 158.346 224.75 155.778 232.018 151.473C239.286 147.166 255.631 137.8 268.341 130.659C281.049 123.518 294.134 114.312 297.42 110.2L303.394 102.724L307.085 116.369C309.113 123.875 316.067 138.196 322.535 148.195C339.939 175.1 364.572 202.719 355.23 184.856C352.427 179.498 344.761 144.303 342.594 126.847C341.703 119.664 339.701 108.953 338.146 103.04C335.337 92.3503 335.345 92.2982 339.956 93.4739C354.932 97.293 374.191 133.411 390.39 188.058L399.574 219.032L409.379 219.315C414.771 219.47 419.657 219.314 420.235 218.971C420.814 218.628 421.058 214.766 420.779 210.391C420.382 204.184 431.257 103.386 433.106 96.1368C433.466 94.7256 471.71 118.748 473.26 121.357C474.615 123.642 430.085 272.03 425.842 279.359C423.226 283.883 420.57 290.662 419.939 294.422C419.31 298.183 417.357 303.343 415.601 305.892C413.218 309.343 413.337 301.554 416.067 275.286C421.723 220.856 421.921 223.974 412.697 222.414C402.73 220.729 399.742 222.529 401.393 229.222C403.451 237.573 388.492 396.357 385.23 400.754C384.291 402.022 384.167 400.037 384.951 396.343C385.737 392.651 385.358 385.653 384.111 380.793L381.843 371.956L379.721 379.888C378.555 384.25 374.867 392.335 371.527 397.854C368.188 403.373 364.847 410.229 364.102 413.093C363.235 416.427 361.009 410.355 357.9 396.175C355.234 384.006 348.526 364.404 342.989 352.61C337.455 340.817 330.109 325.141 326.667 317.774L320.406 304.381L319.519 314.772C318.159 330.687 319.578 363.307 322.509 383.393C326.123 408.183 332.343 423.903 343.528 436.509C348.737 442.379 353.039 449.481 353.089 452.292C353.157 456.198 329.497 507.271 326.604 509.461C326.286 509.703 324.686 499.209 323.048 486.139C321.409 473.072 317.064 443.032 313.394 419.387C309.724 395.741 307.053 373.824 307.457 370.683C309.454 355.238 308.946 351.642 303.016 339.283C299.505 331.965 297.109 324.104 297.693 321.813C298.277 319.524 297.147 313.012 295.18 307.343C290.226 293.063 271.186 260.389 264.207 254.197L258.435 249.075L262.66 256.926C264.984 261.245 269.696 273.368 273.132 283.866L279.377 302.955L270.148 291.958C265.075 285.91 260.795 281.457 260.642 282.059C260.047 284.392 271.244 311.626 281.953 333.9L293.16 357.205L286.366 359.536C279.589 361.859 279.553 361.833 273.335 349.92C269.906 343.352 264.312 332.712 260.903 326.279C255.497 316.074 255.057 313.212 257.442 303.859C262.427 284.31 256.306 265.796 238.403 246.262C224.653 231.261 219.438 228.145 225.924 238.807C229.115 244.057 231.969 255.154 233.384 267.813C234.642 279.091 237.038 291.4 238.706 295.167C240.374 298.933 241.42 301.92 241.032 301.805C240.641 301.689 234.508 298.001 227.403 293.61C220.295 289.219 209.834 284.442 204.156 282.994L193.83 280.361L214.482 300.06C225.841 310.894 238.124 321.468 241.782 323.557L248.43 327.357L238.482 333.647C229.953 339.041 199.998 371.829 198.603 377.299C198.343 378.318 202.773 376.565 208.445 373.401C214.119 370.24 227.712 363.77 238.655 359.027C249.596 354.286 260.548 348.924 262.989 347.114C267.252 343.954 267.651 344.209 273.012 353.573L278.595 363.323L270.031 368.807C261.258 374.423 248.569 384.914 248.041 386.986C247.878 387.624 254.263 386.182 262.231 383.785C282.568 377.665 285.207 377.809 289.984 385.315C292.668 389.532 293.087 392.041 291.21 392.631C289.404 393.197 290.216 395.638 293.411 399.247C301.199 408.04 309.483 423.401 311.671 433.104C312.759 437.923 315.918 458.742 318.692 479.366L323.739 516.866L317.714 534.083L311.689 551.297L309.188 542.885C307.813 538.256 305.037 531.395 303.021 527.637C301.004 523.878 299.527 517.131 299.735 512.642C300.32 500.125 292.547 473.881 283.978 459.445C274.578 443.613 258.358 428.47 238.792 417.268C230.718 412.644 222.039 407.149 219.51 405.058C215.533 401.769 215.379 401.779 218.365 405.134C233.054 421.616 243.982 437.507 256.122 460.034L270.248 486.247L248.485 480.732C236.514 477.701 224.979 475.804 222.85 476.519C219.702 477.575 219.881 478.055 223.813 479.089C226.474 479.786 235.651 485.434 244.207 491.639C252.766 497.845 264.204 506.148 269.625 510.091C275.873 514.636 282.121 517.43 286.684 517.725C292.616 518.105 294.709 519.647 298.571 526.48C301.147 531.042 302.037 534.464 300.548 534.084C296.682 533.099 299.358 543.037 303.773 546.077C309.374 549.928 309.416 553.131 304.142 573.963C299.434 592.554 298.698 594.006 293.528 594.903C287.8 595.899 280.475 590.494 270.422 577.86C268.077 574.914 263.887 571.925 261.107 571.216C257.874 570.392 254.371 566.162 251.382 559.47C243.407 541.623 221.508 520.613 186.866 497.575C174.653 489.453 168.154 483.398 164.125 476.378C161.025 470.974 153.999 463.034 148.512 458.735C137.017 449.723 111.862 436.419 101.175 433.696L93.8566 431.832L101.726 438.586C106.054 442.301 116.891 455.263 125.806 467.389L142.016 489.436L130.064 491.718C118.462 493.932 85.4888 506.282 84.8876 508.639C84.7238 509.281 88.2644 508.924 92.7583 507.845C98.1943 506.542 108.049 507.358 122.218 510.29L143.51 514.695L137.818 518.843C134.687 521.121 126.434 526.579 119.476 530.97C107.241 538.691 106.892 543.107 118.874 538.579C121.869 537.446 130.14 535.784 137.255 534.885C154.151 532.748 163.17 529.116 169.133 522.046L173.986 516.292L188.994 526.009C197.249 531.351 210.617 541.199 218.7 547.892L233.399 560.061L224.619 559.828C213.532 559.535 188.961 564.915 169.763 571.843C160.899 575.042 145.383 577.725 131.086 578.532C109.383 579.755 106.976 579.478 104.617 575.507C99.2913 566.535 88.2986 561.936 54.5826 554.577C34.2588 550.142 17.812 547.751 11.08 548.252L0.25651 549.059L11.559 552.175C17.7754 553.89 29.7828 558.849 38.2415 563.198L53.6209 571.108L30.9305 572.188C-0.521016 573.685 -0.903828 573.845 15.0935 578.776C39.1623 586.197 84.4889 589.885 94.9422 585.274C96.4664 584.599 106.748 583.54 117.788 582.917C128.829 582.295 139.577 581.6 141.675 581.373C143.772 581.144 137.93 584.578 128.69 589.001C119.453 593.424 111.792 597.44 111.668 597.925C111.544 598.412 119.525 597.312 129.404 595.482C139.282 593.653 161.267 591.751 178.261 591.258C195.252 590.765 210.576 590.202 212.315 590.008C214.052 589.814 210.377 595.127 204.149 601.814C188.868 618.225 163.362 654.826 166.63 655.659C167.148 655.792 170.812 652.212 174.771 647.708C181.528 640.021 237.641 603.566 236.632 607.521C235.163 613.283 222.162 643.699 219.153 648.408C217.194 651.476 216.448 654.207 217.498 654.474C220.108 655.14 265.515 604.549 269.191 596.882C272.094 590.824 272.246 590.802 277.687 595.641L283.224 600.567L267.812 618.405C259.336 628.215 249.202 637.775 245.292 639.652C241.385 641.53 239.035 643.318 240.071 643.629C243.806 644.749 271.598 636.885 281.949 631.778L292.529 626.56L289.071 651.149C287.168 664.672 285.505 679.613 285.371 684.347C285.149 692.362 284.775 692.866 279.959 691.638C277.112 690.912 273.913 691.158 272.85 692.184C271.786 693.211 267.733 693.244 263.844 692.257C256.325 690.349 240.531 694.008 239.542 697.89C238.384 702.429 228.251 701.622 222.471 696.529C209.205 684.838 173.942 688.735 128.015 706.97C115.572 711.909 109.67 717.26 120.454 713.821C123.632 712.808 132.279 712.837 139.668 713.886C147.059 714.934 160.332 715.256 169.165 714.601L185.225 713.414L172.245 725.478C157.049 739.604 144.319 753.787 146.367 754.309C147.157 754.511 152.348 752.385 157.902 749.582C166.716 745.134 189.38 734.97 203.368 729.192C207.192 727.614 206.07 730.19 196.803 744.286C190.656 753.634 183.777 766.008 181.519 771.782L177.412 782.281L187.894 772.968C193.66 767.846 206.874 757.413 217.26 749.784C227.647 742.155 242.089 730.602 249.357 724.113L262.569 712.31L261.991 736.772C261.178 771.15 258.699 798.487 255.111 812.595C251.107 828.345 254.259 826.049 268.877 802.572L280.652 783.666L276.559 805.71C274.307 817.835 269.738 838.473 266.404 851.575L260.342 875.393L270.063 877.872L279.784 880.351L294.635 828.101C302.801 799.364 310.819 772.741 312.452 768.939C314.509 764.147 314.541 761.791 312.558 761.262C310.272 760.648 310.351 760.282 312.954 759.43C315.53 758.589 316.565 754.8 317.918 741.268C319.095 729.481 323.337 712.09 331.566 685.295L343.507 646.419L350.297 654.108C355.554 660.059 356.667 663.151 355.223 667.789C354.198 671.086 353.052 684.323 352.679 697.205C352.305 710.087 350.467 734.57 348.594 751.611C346.721 768.653 343.605 799.711 341.672 820.63C338.597 853.898 336.815 866.777 332.289 888.432C331.357 892.892 332.4 893.769 341.379 896.059L351.526 898.646L351.94 891.083C352.168 886.923 352.107 880.803 351.805 877.482C351.24 871.277 361.481 776.734 368.218 725.942C371.632 700.205 375.057 681.509 378.19 671.508C378.81 669.529 386.918 662.043 396.208 654.875L413.099 641.843L411.542 654.416C410.685 661.33 405.612 686.42 400.273 710.17C394.932 733.92 390.575 753.513 390.59 753.711C390.604 753.908 389.787 758.636 388.775 764.217C387.76 769.798 385.586 786.326 383.941 800.946C382.298 815.566 377.399 844.311 373.052 864.824L365.153 902.121L376.994 905.141L388.835 908.161L390.967 899.802C392.139 895.205 396.265 872.634 400.137 849.642C404.008 826.652 409.426 795.143 412.178 779.623C414.928 764.103 419.26 739.194 421.804 724.27C424.349 709.347 430.254 679.375 434.924 657.665C442.964 620.298 443.71 618.02 448.893 614.944C453.764 612.052 475.051 612.115 476.779 615.026C477.151 615.652 472.733 637.167 466.963 662.839C459.603 695.578 447.613 738.447 426.812 806.407C410.5 859.698 396.778 904.773 396.318 906.577C395.667 909.126 398.605 910.652 409.521 913.435L423.562 917.016L447.483 829.327C460.641 781.097 478.588 713.476 487.369 679.054C497.634 638.809 504.122 616.671 505.546 617.034C506.765 617.345 507.263 619.86 506.654 622.626C506.046 625.391 506.378 632.111 507.39 637.56L509.233 647.468L513.557 631.198L517.881 614.925L511.267 614.234C504.74 613.554 504.68 613.373 506.639 599.999C507.731 592.55 510.524 579.009 512.845 569.908C516.945 553.829 517.335 553.218 526.629 548.238C532.251 545.224 536.73 541.01 537.494 538.015C538.537 533.926 538.059 533.263 535.082 534.677C531.942 536.167 532.446 534.246 538.343 522.232C542.178 514.419 545.495 505.947 545.713 503.407C545.934 500.866 541.725 508.286 536.362 519.896C531 531.506 524.679 542.635 522.319 544.628C518.436 547.909 518.407 547.05 522.015 535.597C525.668 524 525.61 522.729 521.321 520.414C516.233 517.667 501.742 516.185 495.36 517.757C491.815 518.632 491.13 520.975 489.162 538.971C485.323 574.095 484.901 575.025 464.664 593.271L446.616 609.54L447.967 597.637C448.711 591.09 451.998 576.712 455.271 565.688L461.226 545.641L450.879 541.358C437.086 535.649 436.191 533.283 449.065 536.566C456.526 538.468 460.108 538.322 461.719 536.048C462.954 534.303 468.859 504.438 474.84 469.681C480.822 434.925 487.47 402.471 489.614 397.561C494.013 387.482 506.966 369.651 509.432 370.28C511.28 370.751 510.465 400.12 508.037 420.653L506.411 434.395L517.052 417.521C522.906 408.24 528.142 398.958 528.687 396.893C529.548 393.649 529.871 393.667 531.083 397.037C532.532 401.061 525.799 424.234 509.069 472.825C501.321 495.326 499.319 499.235 494.29 501.669C489.698 503.893 488.784 505.396 489.938 508.817C490.742 511.2 493.351 513.253 495.734 513.377C498.118 513.501 506.362 514.721 514.056 516.083C530.971 519.083 533.777 517.524 533.943 505.042C534.059 496.139 567.889 340.282 570.627 336.02C571.35 334.895 574.117 336.804 576.772 340.265C583.128 348.547 583.731 345.098 577.972 333.401C575.441 328.263 573.935 321.678 574.625 318.768C575.794 313.833 576.447 313.724 584.378 317.155L592.878 320.832L596.895 305.078L600.913 289.325L591.798 291.979L582.684 294.633L588.789 289.466C592.147 286.624 596.765 283.413 599.047 282.33C601.331 281.246 603.588 278.731 604.063 276.74C604.64 274.32 601.267 275.437 593.899 280.104L582.87 287.085L589.257 259.218L595.642 231.348L603.664 234.586C613.499 238.554 613.941 237.754 605.856 230.617C602.412 227.577 599.075 223.779 598.437 222.175C597.8 220.573 604.098 195.253 612.436 165.908L627.591 112.556L615.183 109.392C606.483 107.173 602.555 107.087 602.041 109.105C601.265 112.147 562.212 113.556 559.404 110.643C558.546 109.754 557.365 105.697 556.779 101.626C556.194 97.5578 554.838 94.003 553.767 93.7302C551.2 93.0754 551.168 93.3835 552.752 104.143C553.866 111.718 553.498 113.578 550.703 114.491C544.506 116.513 543.928 114.929 546.78 103.746L549.605 92.6686L537.42 89.5614L525.235 86.4541L522.418 97.5024L519.6 108.551L510.866 101.165C503.603 95.0238 502.398 92.7346 503.714 87.5749C505.213 81.6975 504.769 81.2351 495.327 78.8273C489.844 77.429 485.117 77.231 484.822 78.3852C484.492 79.679 482.044 79.0004 478.455 76.6224C475.246 74.4968 467.698 71.8312 461.68 70.6977L450.737 68.636L464.836 85.0529C472.592 94.0809 478.78 102.079 478.59 102.826C477.958 105.302 435.553 91.4167 434.525 88.3964C433.981 86.7946 434.326 82.3218 435.29 78.4575C438.136 67.065 436.878 63.9222 428.628 61.8183C424.091 60.6613 420.831 60.998 420.407 62.6712C420.021 64.196 416.124 96.2587 411.75 133.924C407.378 171.591 403.252 202.732 402.584 203.13C401.039 204.046 387.938 162.231 388.76 159.008C389.096 157.687 386.008 151.06 381.897 144.281C377.787 137.501 374.688 130.916 375.012 129.647C375.335 128.377 372.791 123.625 369.355 119.085C356.893 102.611 349.605 67.9678 356.553 58.2277C358.452 55.5644 359.875 58.9614 362.339 72.048C365.438 88.4885 383.118 131.964 386.007 130.247C386.752 129.804 386.877 124.745 386.285 118.999C385.692 113.254 385.842 97.5661 386.617 84.1377C387.394 70.7099 387.927 57.8381 387.804 55.5369C387.61 51.8845 384.481 50.5605 363.216 45.1375C349.815 41.7202 336.537 39.495 333.709 40.192C329.991 41.1078 328.07 40.6179 326.766 38.4214C324.177 34.0591 320.545 33.6449 322.585 37.9426ZM350.702 64.3969C350.099 67.5038 349.594 72.7665 349.581 76.0925C349.56 81.6719 349.172 81.3795 344.565 72.3286C339.763 62.8931 339.761 62.4372 344.56 60.4192C351.395 57.5424 351.965 57.9094 350.702 64.3969ZM591.45 158.676C587.387 177.819 583.49 193.332 582.788 193.153C582.088 192.972 579.779 189.684 577.66 185.845C575.445 181.835 571.821 178.653 569.141 178.364C565.154 177.937 564.295 174.905 563.234 157.535C562.548 146.354 562.879 136.712 563.964 136.109C570.241 132.627 597.715 121.996 598.226 122.851C598.562 123.413 595.513 139.534 591.45 158.676ZM558.654 161.051C559.374 172.105 559.599 181.364 559.156 181.629C557.884 182.382 538.689 144.726 539.242 142.557C539.799 140.373 551.998 138.38 555.245 139.942C556.401 140.499 557.936 149.998 558.654 161.051ZM509.773 159.562C502.359 198.403 496.993 217.057 490.911 225.135C487.853 229.197 485.75 233.189 486.235 234.006C486.72 234.823 488.276 233.856 489.692 231.856C494.877 224.533 493.597 236.964 486.046 267.241C479.225 294.591 478.987 296.819 482.961 296.179C490.793 294.917 502.214 297.011 501.557 299.59C501.212 300.941 498.186 301.363 494.829 300.526C483.333 297.663 481.891 299.447 476.426 323.312C473.666 335.375 470.941 347.782 470.375 350.882C469.484 355.742 467.689 356.648 457.302 357.473L445.262 358.427L456.648 361.435L468.037 364.443L462.784 390.827C459.894 405.34 456.72 422.729 455.732 429.47C453.974 441.454 453.827 441.669 449.104 439.021C446.45 437.53 436.298 434.261 426.545 431.758L408.814 427.203L412.192 417.306C414.716 409.917 419.832 403.356 432.377 391.419C448.529 376.055 454.843 367.258 447.546 370.288C445.732 371.043 439.38 373.748 433.432 376.299L422.617 380.943L428.041 362.976C431.023 353.093 437.316 334.312 442.023 321.237C446.733 308.163 460.048 259.799 471.614 213.759L492.644 130.051L503.497 132.819L514.348 135.586L509.773 159.562ZM552.189 176.853C553.313 181.255 552.789 181.374 545.775 178.32C541.572 176.491 537.322 175.78 536.327 176.739C531.63 181.272 530.666 176.187 533.856 163.677L537.361 149.935L544.164 160.997C547.907 167.081 551.519 174.217 552.189 176.853ZM557.753 212.131C559.174 218.311 557.708 243.205 554.114 273.903C552.912 284.169 552.568 284.723 549.269 281.707C547.318 279.921 541.245 277.497 535.773 276.321C527.197 274.479 524.96 275.005 519.537 280.156C516.077 283.443 512.626 286.012 511.868 285.868C509.653 285.45 515.39 255.725 518.33 252.393C519.801 250.725 525.947 242.656 531.989 234.464C542.98 219.564 554.684 205.081 555.653 205.184C555.938 205.214 556.882 208.339 557.753 212.131ZM568.933 257.438C559.648 293.85 554.671 302.727 558.485 276.075C560.589 261.367 563.949 224.364 564.045 214.82L564.1 209.429L571.141 215.297L578.184 221.163L568.933 257.438ZM524.935 214.233C523.778 215.818 523.387 215.159 523.939 212.551C524.439 210.192 525.295 209.018 525.843 209.941C526.391 210.864 525.983 212.797 524.935 214.233ZM542.845 306.539C545.575 309.833 547.367 314.075 546.831 315.965C546.292 317.855 540.497 324.97 533.951 331.774C524.943 341.135 521.095 343.688 518.132 342.262C513.909 340.232 513.816 340.56 527.671 309.465C533.887 295.513 533.734 295.543 542.845 306.539ZM514.79 325.899C505.615 347.286 499.663 349.753 503.565 330.556C506.157 317.801 506.919 316.525 513.868 313.286C517.994 311.363 521.453 309.772 521.553 309.75C521.653 309.729 518.61 316.996 514.79 325.899ZM547.896 339.935L542.821 359.834L531.803 356.758L520.783 353.683L536.293 336.71C544.824 327.376 552.066 319.806 552.387 319.888C552.708 319.97 550.686 328.991 547.896 339.935ZM563.219 424.99C562.149 426.501 558.681 435.437 555.512 444.85C551.279 457.425 550.143 463.942 551.226 469.418C552.599 476.349 553.202 474.967 559.804 449.781C566.697 423.482 567.279 419.256 563.219 424.99ZM306.816 394.57C308.211 405.541 309.058 414.692 308.7 414.905C308.341 415.118 304.08 407.196 299.234 397.303L290.422 379.316L296.234 376.721C299.432 375.295 302.551 374.238 303.166 374.374C303.78 374.511 305.424 383.599 306.816 394.57ZM447.18 471.419C441.949 498.316 440.095 503.513 409.936 575.766C392.481 617.586 377.887 652.008 377.509 652.259C376.102 653.188 387.73 533.626 389.908 524.771C390.564 522.105 398.511 515.22 408.406 508.746C417.947 502.504 425.474 496.93 425.132 496.359C424.789 495.787 417.055 497.487 407.945 500.135L391.38 504.952L392.068 495.631C392.772 486.087 400.544 474.492 411.06 467.297C417.001 463.234 413.819 462.789 404.528 466.382L396.927 469.323L399.122 460.714L401.318 452.102L425.465 447.216C438.746 444.527 450.304 442.503 451.148 442.718C451.995 442.934 450.207 455.849 447.18 471.419ZM377.492 435.336C373.525 439.671 365.755 443.52 366.447 440.808C366.726 439.711 369.073 436.995 371.66 434.771C377.445 429.795 382.144 430.253 377.492 435.336ZM361.533 441.572C359.931 447.853 358.617 449.962 357.488 448.06C356.016 445.58 360.928 431.508 363.075 432.056C363.531 432.172 362.838 436.455 361.533 441.572ZM367.583 473.361C363.68 488.665 363.371 489.11 348.016 501.517C339.434 508.448 332.476 512.759 332.553 511.096C332.629 509.431 337.921 497.199 344.31 483.914C354.45 462.832 356.708 459.586 362.068 458.395C365.444 457.644 368.959 457.205 369.878 457.421C370.798 457.636 369.764 464.81 367.583 473.361ZM435.515 537.256C435.088 540.708 430.453 564.092 425.217 589.223L415.696 634.917L399.482 647.027C390.565 653.689 382.963 658.621 382.588 657.992C382.215 657.361 393.756 627.871 408.235 592.457C422.715 557.046 434.951 528.726 435.426 529.527C435.902 530.328 435.942 533.807 435.515 537.256ZM338.603 571.6C332.995 590.046 328.48 601.829 327.433 600.744C325.847 599.1 320.86 599.521 308.173 602.37C305.783 602.908 303.162 603.176 302.351 602.969C300.683 602.544 316.784 549.739 319.943 545.278C321.581 542.964 345.854 538.491 347.566 540.188C347.815 540.433 343.781 554.568 338.603 571.6ZM190.665 519.458C190.446 520.315 187.852 518.255 175.46 507.374C172.012 504.35 169.52 500.596 169.919 499.031C170.346 497.357 174.795 500.785 180.766 507.387C186.332 513.547 190.787 518.977 190.665 519.458ZM480.105 597.527L477.339 610.936L467.213 610.119C461.644 609.668 456.823 608.856 456.501 608.312C456.18 607.77 461.771 601.749 468.926 594.933C476.082 588.118 482.147 582.895 482.404 583.329C482.662 583.762 481.627 590.152 480.105 597.527ZM360.576 620.177L357.695 648.935L353.241 639.631C350.795 634.515 349.461 627.698 350.28 624.485C352.92 614.133 363.812 584.312 363.634 587.924C363.538 589.846 362.163 604.36 360.576 620.177ZM309.609 674.703L302.67 699.053L296.167 693.633C290.012 688.503 289.761 687.295 291.481 670.981C292.48 661.503 294.628 646.124 296.256 636.807L299.213 619.865L307.88 635.109L316.55 650.353L309.609 674.703ZM228.973 706.95C227.909 707.976 226.042 708.562 224.824 708.251C223.605 707.94 223.478 706.846 224.542 705.82C225.606 704.793 227.473 704.208 228.692 704.518C229.91 704.829 230.037 705.923 228.973 706.95ZM306.9 762.214C305.836 763.24 302.035 763.333 298.45 762.419C294.866 761.505 292.189 759.76 292.5 758.542C292.81 757.323 296.614 757.231 300.949 758.337C305.641 759.534 308.051 761.104 306.9 762.214Z" fill="url(#paint0_linear_98_226)"/>
<defs>
<linearGradient id="paint0_linear_98_226" x1="291" y1="72" x2="224.5" y2="834" gradientUnits="userSpaceOnUse">
<stop stop-color="#1F3438"/>
<stop offset="1"/>
</linearGradient>
</defs>
</svg>
